<?xml version="1.0" ?>
<!--Created by PyChart 1.39 Copyright 1999-2006 Yasushi Saito-->
<svg viewBox="210.98 -783 732.02 532" xmlns="http://www.w3.org/2000/svg" xmlns:xlink="http://www.w3.org/1999/xlink">
  <defs>
    <clipPath id="clip0">
      <path d="M 297 -297 L 297 -783 L 943 -783 L 943 -297 Z"/>
    </clipPath>
    <clipPath id="clip1">
      <path d="M 297 -297 L 297 -783 L 943 -783 L 943 -297 Z"/>
    </clipPath>
    <clipPath id="clip2">
      <path d="M 290 -290 L 290 -790 L 950 -790 L 950 -290 Z"/>
    </clipPath>
    <clipPath id="clip3">
      <path d="M 297 -297 L 297 -783 L 943 -783 L 943 -297 Z"/>
    </clipPath>
    <clipPath id="clip4">
      <path d="M 290 -290 L 290 -790 L 950 -790 L 950 -290 Z"/>
    </clipPath>
    <clipPath id="clip5">
      <path d="M 297 -297 L 297 -783 L 943 -783 L 943 -297 Z"/>
    </clipPath>
    <clipPath id="clip6">
      <path d="M 290 -290 L 290 -790 L 950 -790 L 950 -290 Z"/>
    </clipPath>
    <clipPath id="clip7">
      <path d="M 297 -297 L 297 -783 L 943 -783 L 943 -297 Z"/>
    </clipPath>
    <clipPath id="clip8">
      <path d="M 290 -290 L 290 -790 L 950 -790 L 950 -290 Z"/>
    </clipPath>
    <clipPath id="clip9">
      <path d="M 297 -297 L 297 -783 L 943 -783 L 943 -297 Z"/>
    </clipPath>
    <clipPath id="clip10">
      <path d="M 290 -290 L 290 -790 L 950 -790 L 950 -290 Z"/>
    </clipPath>
    <clipPath id="clip11">
      <path d="M 297 -297 L 297 -783 L 943 -783 L 943 -297 Z"/>
    </clipPath>
    <clipPath id="clip12">
      <path d="M 290 -290 L 290 -790 L 950 -790 L 950 -290 Z"/>
    </clipPath>
    <clipPath id="clip13">
      <path d="M 297 -297 L 297 -783 L 943 -783 L 943 -297 Z"/>
    </clipPath>
    <clipPath id="clip14">
      <path d="M 290 -290 L 290 -790 L 950 -790 L 950 -290 Z"/>
    </clipPath>
    <clipPath id="clip15">
      <path d="M 297 -297 L 297 -783 L 943 -783 L 943 -297 Z"/>
    </clipPath>
    <clipPath id="clip16">
      <path d="M 290 -290 L 290 -790 L 950 -790 L 950 -290 Z"/>
    </clipPath>
    <clipPath id="clip17">
      <path d="M 297 -297 L 297 -783 L 943 -783 L 943 -297 Z"/>
    </clipPath>
    <clipPath id="clip18">
      <path d="M 290 -290 L 290 -790 L 950 -790 L 950 -290 Z"/>
    </clipPath>
    <clipPath id="clip19">
      <path d="M 297 -297 L 297 -783 L 943 -783 L 943 -297 Z"/>
    </clipPath>
    <clipPath id="clip20">
      <path d="M 290 -290 L 290 -790 L 950 -790 L 950 -290 Z"/>
    </clipPath>
    <clipPath id="clip21">
      <path d="M 297 -297 L 297 -783 L 943 -783 L 943 -297 Z"/>
    </clipPath>
    <clipPath id="clip22">
      <path d="M 290 -290 L 290 -790 L 950 -790 L 950 -290 Z"/>
    </clipPath>
    <clipPath id="clip23">
      <path d="M 297 -297 L 297 -783 L 943 -783 L 943 -297 Z"/>
    </clipPath>
    <clipPath id="clip24">
      <path d="M 290 -290 L 290 -790 L 950 -790 L 950 -290 Z"/>
    </clipPath>
    <clipPath id="clip25">
      <path d="M 297 -297 L 297 -783 L 943 -783 L 943 -297 Z"/>
    </clipPath>
    <clipPath id="clip26">
      <path d="M 290 -290 L 290 -790 L 950 -790 L 950 -290 Z"/>
    </clipPath>
    <clipPath id="clip27">
      <path d="M 297 -297 L 297 -783 L 943 -783 L 943 -297 Z"/>
    </clipPath>
    <clipPath id="clip28">
      <path d="M 290 -290 L 290 -790 L 950 -790 L 950 -290 Z"/>
    </clipPath>
    <clipPath id="clip29">
      <path d="M 297 -297 L 297 -783 L 943 -783 L 943 -297 Z"/>
    </clipPath>
    <clipPath id="clip30">
      <path d="M 290 -290 L 290 -790 L 950 -790 L 950 -290 Z"/>
    </clipPath>
    <clipPath id="clip31">
      <path d="M 297 -297 L 297 -783 L 943 -783 L 943 -297 Z"/>
    </clipPath>
    <clipPath id="clip32">
      <path d="M 290 -290 L 290 -790 L 950 -790 L 950 -290 Z"/>
    </clipPath>
    <clipPath id="clip33">
      <path d="M 297 -297 L 297 -783 L 943 -783 L 943 -297 Z"/>
    </clipPath>
    <clipPath id="clip34">
      <path d="M 290 -290 L 290 -790 L 950 -790 L 950 -290 Z"/>
    </clipPath>
    <clipPath id="clip35">
      <path d="M 297 -297 L 297 -783 L 943 -783 L 943 -297 Z"/>
    </clipPath>
    <clipPath id="clip36">
      <path d="M 290 -290 L 290 -790 L 950 -790 L 950 -290 Z"/>
    </clipPath>
    <clipPath id="clip37">
      <path d="M 297 -297 L 297 -783 L 943 -783 L 943 -297 Z"/>
    </clipPath>
    <clipPath id="clip38">
      <path d="M 290 -290 L 290 -790 L 950 -790 L 950 -290 Z"/>
    </clipPath>
    <clipPath id="clip39">
      <path d="M 297 -297 L 297 -783 L 943 -783 L 943 -297 Z"/>
    </clipPath>
    <clipPath id="clip40">
      <path d="M 290 -290 L 290 -790 L 950 -790 L 950 -290 Z"/>
    </clipPath>
    <clipPath id="clip41">
      <path d="M 297 -297 L 297 -783 L 943 -783 L 943 -297 Z"/>
    </clipPath>
    <clipPath id="clip42">
      <path d="M 290 -290 L 290 -790 L 950 -790 L 950 -290 Z"/>
    </clipPath>
    <clipPath id="clip43">
      <path d="M 297 -297 L 297 -783 L 943 -783 L 943 -297 Z"/>
    </clipPath>
    <clipPath id="clip44">
      <path d="M 290 -290 L 290 -790 L 950 -790 L 950 -290 Z"/>
    </clipPath>
    <clipPath id="clip45">
      <path d="M 297 -297 L 297 -783 L 943 -783 L 943 -297 Z"/>
    </clipPath>
    <clipPath id="clip46">
      <path d="M 290 -290 L 290 -790 L 950 -790 L 950 -290 Z"/>
    </clipPath>
    <clipPath id="clip47">
      <path d="M 297 -297 L 297 -783 L 943 -783 L 943 -297 Z"/>
    </clipPath>
    <clipPath id="clip48">
      <path d="M 290 -290 L 290 -790 L 950 -790 L 950 -290 Z"/>
    </clipPath>
    <clipPath id="clip49">
      <path d="M 297 -297 L 297 -783 L 943 -783 L 943 -297 Z"/>
    </clipPath>
    <clipPath id="clip50">
      <path d="M 290 -290 L 290 -790 L 950 -790 L 950 -290 Z"/>
    </clipPath>
    <clipPath id="clip51">
      <path d="M 297 -297 L 297 -783 L 943 -783 L 943 -297 Z"/>
    </clipPath>
    <clipPath id="clip52">
      <path d="M 290 -290 L 290 -790 L 950 -790 L 950 -290 Z"/>
    </clipPath>
    <clipPath id="clip53">
      <path d="M 297 -297 L 297 -783 L 943 -783 L 943 -297 Z"/>
    </clipPath>
    <clipPath id="clip54">
      <path d="M 290 -290 L 290 -790 L 950 -790 L 950 -290 Z"/>
    </clipPath>
    <clipPath id="clip55">
      <path d="M 297 -297 L 297 -783 L 943 -783 L 943 -297 Z"/>
    </clipPath>
    <clipPath id="clip56">
      <path d="M 290 -290 L 290 -790 L 950 -790 L 950 -290 Z"/>
    </clipPath>
    <clipPath id="clip57">
      <path d="M 297 -297 L 297 -783 L 943 -783 L 943 -297 Z"/>
    </clipPath>
    <clipPath id="clip58">
      <path d="M 290 -290 L 290 -790 L 950 -790 L 950 -290 Z"/>
    </clipPath>
    <clipPath id="clip59">
      <path d="M 297 -297 L 297 -783 L 943 -783 L 943 -297 Z"/>
    </clipPath>
    <clipPath id="clip60">
      <path d="M 290 -290 L 290 -790 L 950 -790 L 950 -290 Z"/>
    </clipPath>
    <clipPath id="clip61">
      <path d="M 297 -297 L 297 -783 L 943 -783 L 943 -297 Z"/>
    </clipPath>
    <clipPath id="clip62">
      <path d="M 290 -290 L 290 -790 L 950 -790 L 950 -290 Z"/>
    </clipPath>
    <clipPath id="clip63">
      <path d="M 297 -297 L 297 -783 L 943 -783 L 943 -297 Z"/>
    </clipPath>
    <clipPath id="clip64">
      <path d="M 290 -290 L 290 -790 L 950 -790 L 950 -290 Z"/>
    </clipPath>
    <clipPath id="clip65">
      <path d="M 297 -297 L 297 -783 L 943 -783 L 943 -297 Z"/>
    </clipPath>
    <clipPath id="clip66">
      <path d="M 290 -290 L 290 -790 L 950 -790 L 950 -290 Z"/>
    </clipPath>
    <clipPath id="clip67">
      <path d="M 297 -297 L 297 -783 L 943 -783 L 943 -297 Z"/>
    </clipPath>
    <clipPath id="clip68">
      <path d="M 290 -290 L 290 -790 L 950 -790 L 950 -290 Z"/>
    </clipPath>
    <clipPath id="clip69">
      <path d="M 297 -297 L 297 -783 L 943 -783 L 943 -297 Z"/>
    </clipPath>
    <clipPath id="clip70">
      <path d="M 290 -290 L 290 -790 L 950 -790 L 950 -290 Z"/>
    </clipPath>
    <clipPath id="clip71">
      <path d="M 297 -297 L 297 -783 L 943 -783 L 943 -297 Z"/>
    </clipPath>
    <clipPath id="clip72">
      <path d="M 290 -290 L 290 -790 L 950 -790 L 950 -290 Z"/>
    </clipPath>
    <clipPath id="clip73">
      <path d="M 297 -297 L 297 -783 L 943 -783 L 943 -297 Z"/>
    </clipPath>
    <clipPath id="clip74">
      <path d="M 290 -290 L 290 -790 L 950 -790 L 950 -290 Z"/>
    </clipPath>
    <clipPath id="clip75">
      <path d="M 297 -297 L 297 -783 L 943 -783 L 943 -297 Z"/>
    </clipPath>
    <clipPath id="clip76">
      <path d="M 290 -290 L 290 -790 L 950 -790 L 950 -290 Z"/>
    </clipPath>
    <clipPath id="clip77">
      <path d="M 297 -297 L 297 -783 L 943 -783 L 943 -297 Z"/>
    </clipPath>
    <clipPath id="clip78">
      <path d="M 290 -290 L 290 -790 L 950 -790 L 950 -290 Z"/>
    </clipPath>
    <clipPath id="clip79">
      <path d="M 297 -297 L 297 -783 L 943 -783 L 943 -297 Z"/>
    </clipPath>
    <clipPath id="clip80">
      <path d="M 290 -290 L 290 -790 L 950 -790 L 950 -290 Z"/>
    </clipPath>
    <clipPath id="clip81">
      <path d="M 297 -297 L 297 -783 L 943 -783 L 943 -297 Z"/>
    </clipPath>
    <clipPath id="clip82">
      <path d="M 290 -290 L 290 -790 L 950 -790 L 950 -290 Z"/>
    </clipPath>
    <clipPath id="clip83">
      <path d="M 297 -297 L 297 -783 L 943 -783 L 943 -297 Z"/>
    </clipPath>
    <clipPath id="clip84">
      <path d="M 290 -290 L 290 -790 L 950 -790 L 950 -290 Z"/>
    </clipPath>
    <clipPath id="clip85">
      <path d="M 297 -297 L 297 -783 L 943 -783 L 943 -297 Z"/>
    </clipPath>
    <clipPath id="clip86">
      <path d="M 290 -290 L 290 -790 L 950 -790 L 950 -290 Z"/>
    </clipPath>
    <clipPath id="clip87">
      <path d="M 297 -297 L 297 -783 L 943 -783 L 943 -297 Z"/>
    </clipPath>
    <clipPath id="clip88">
      <path d="M 290 -290 L 290 -790 L 950 -790 L 950 -290 Z"/>
    </clipPath>
    <clipPath id="clip89">
      <path d="M 297 -297 L 297 -783 L 943 -783 L 943 -297 Z"/>
    </clipPath>
    <clipPath id="clip90">
      <path d="M 290 -290 L 290 -790 L 950 -790 L 950 -290 Z"/>
    </clipPath>
    <clipPath id="clip91">
      <path d="M 297 -297 L 297 -783 L 943 -783 L 943 -297 Z"/>
    </clipPath>
    <clipPath id="clip92">
      <path d="M 290 -290 L 290 -790 L 950 -790 L 950 -290 Z"/>
    </clipPath>
    <clipPath id="clip93">
      <path d="M 297 -297 L 297 -783 L 943 -783 L 943 -297 Z"/>
    </clipPath>
    <clipPath id="clip94">
      <path d="M 290 -290 L 290 -790 L 950 -790 L 950 -290 Z"/>
    </clipPath>
    <clipPath id="clip95">
      <path d="M 297 -297 L 297 -783 L 943 -783 L 943 -297 Z"/>
    </clipPath>
    <clipPath id="clip96">
      <path d="M 290 -290 L 290 -790 L 950 -790 L 950 -290 Z"/>
    </clipPath>
    <clipPath id="clip97">
      <path d="M 297 -297 L 297 -783 L 943 -783 L 943 -297 Z"/>
    </clipPath>
    <clipPath id="clip98">
      <path d="M 290 -290 L 290 -790 L 950 -790 L 950 -290 Z"/>
    </clipPath>
    <clipPath id="clip99">
      <path d="M 297 -297 L 297 -783 L 943 -783 L 943 -297 Z"/>
    </clipPath>
    <clipPath id="clip100">
      <path d="M 290 -290 L 290 -790 L 950 -790 L 950 -290 Z"/>
    </clipPath>
    <clipPath id="clip101">
      <path d="M 297 -297 L 297 -783 L 943 -783 L 943 -297 Z"/>
    </clipPath>
    <clipPath id="clip102">
      <path d="M 290 -290 L 290 -790 L 950 -790 L 950 -290 Z"/>
    </clipPath>
    <clipPath id="clip103">
      <path d="M 297 -297 L 297 -783 L 943 -783 L 943 -297 Z"/>
    </clipPath>
    <clipPath id="clip104">
      <path d="M 290 -290 L 290 -790 L 950 -790 L 950 -290 Z"/>
    </clipPath>
    <clipPath id="clip105">
      <path d="M 297 -297 L 297 -783 L 943 -783 L 943 -297 Z"/>
    </clipPath>
    <clipPath id="clip106">
      <path d="M 290 -290 L 290 -790 L 950 -790 L 950 -290 Z"/>
    </clipPath>
    <clipPath id="clip107">
      <path d="M 297 -297 L 297 -783 L 943 -783 L 943 -297 Z"/>
    </clipPath>
    <clipPath id="clip108">
      <path d="M 290 -290 L 290 -790 L 950 -790 L 950 -290 Z"/>
    </clipPath>
    <clipPath id="clip109">
      <path d="M 297 -297 L 297 -783 L 943 -783 L 943 -297 Z"/>
    </clipPath>
    <clipPath id="clip110">
      <path d="M 290 -290 L 290 -790 L 950 -790 L 950 -290 Z"/>
    </clipPath>
    <clipPath id="clip111">
      <path d="M 297 -297 L 297 -783 L 943 -783 L 943 -297 Z"/>
    </clipPath>
    <clipPath id="clip112">
      <path d="M 290 -290 L 290 -790 L 950 -790 L 950 -290 Z"/>
    </clipPath>
    <clipPath id="clip113">
      <path d="M 297 -297 L 297 -783 L 943 -783 L 943 -297 Z"/>
    </clipPath>
    <clipPath id="clip114">
      <path d="M 290 -290 L 290 -790 L 950 -790 L 950 -290 Z"/>
    </clipPath>
    <clipPath id="clip115">
      <path d="M 297 -297 L 297 -783 L 943 -783 L 943 -297 Z"/>
    </clipPath>
    <clipPath id="clip116">
      <path d="M 290 -290 L 290 -790 L 950 -790 L 950 -290 Z"/>
    </clipPath>
    <clipPath id="clip117">
      <path d="M 297 -297 L 297 -783 L 943 -783 L 943 -297 Z"/>
    </clipPath>
    <clipPath id="clip118">
      <path d="M 290 -290 L 290 -790 L 950 -790 L 950 -290 Z"/>
    </clipPath>
    <clipPath id="clip119">
      <path d="M 297 -297 L 297 -783 L 943 -783 L 943 -297 Z"/>
    </clipPath>
    <clipPath id="clip120">
      <path d="M 290 -290 L 290 -790 L 950 -790 L 950 -290 Z"/>
    </clipPath>
    <clipPath id="clip121">
      <path d="M 297 -297 L 297 -783 L 943 -783 L 943 -297 Z"/>
    </clipPath>
    <clipPath id="clip122">
      <path d="M 290 -290 L 290 -790 L 950 -790 L 950 -290 Z"/>
    </clipPath>
    <clipPath id="clip123">
      <path d="M 297 -297 L 297 -783 L 943 -783 L 943 -297 Z"/>
    </clipPath>
    <clipPath id="clip124">
      <path d="M 290 -290 L 290 -790 L 950 -790 L 950 -290 Z"/>
    </clipPath>
    <clipPath id="clip125">
      <path d="M 297 -297 L 297 -783 L 943 -783 L 943 -297 Z"/>
    </clipPath>
    <clipPath id="clip126">
      <path d="M 290 -290 L 290 -790 L 950 -790 L 950 -290 Z"/>
    </clipPath>
    <clipPath id="clip127">
      <path d="M 297 -297 L 297 -783 L 943 -783 L 943 -297 Z"/>
    </clipPath>
    <clipPath id="clip128">
      <path d="M 290 -290 L 290 -790 L 950 -790 L 950 -290 Z"/>
    </clipPath>
    <clipPath id="clip129">
      <path d="M 297 -297 L 297 -783 L 943 -783 L 943 -297 Z"/>
    </clipPath>
    <clipPath id="clip130">
      <path d="M 290 -290 L 290 -790 L 950 -790 L 950 -290 Z"/>
    </clipPath>
    <clipPath id="clip131">
      <path d="M 297 -297 L 297 -783 L 943 -783 L 943 -297 Z"/>
    </clipPath>
    <clipPath id="clip132">
      <path d="M 290 -290 L 290 -790 L 950 -790 L 950 -290 Z"/>
    </clipPath>
    <clipPath id="clip133">
      <path d="M 297 -297 L 297 -783 L 943 -783 L 943 -297 Z"/>
    </clipPath>
    <clipPath id="clip134">
      <path d="M 290 -290 L 290 -790 L 950 -790 L 950 -290 Z"/>
    </clipPath>
    <clipPath id="clip135">
      <path d="M 297 -297 L 297 -783 L 943 -783 L 943 -297 Z"/>
    </clipPath>
    <clipPath id="clip136">
      <path d="M 290 -290 L 290 -790 L 950 -790 L 950 -290 Z"/>
    </clipPath>
    <clipPath id="clip137">
      <path d="M 297 -297 L 297 -783 L 943 -783 L 943 -297 Z"/>
    </clipPath>
    <clipPath id="clip138">
      <path d="M 290 -290 L 290 -790 L 950 -790 L 950 -290 Z"/>
    </clipPath>
    <clipPath id="clip139">
      <path d="M 297 -297 L 297 -783 L 943 -783 L 943 -297 Z"/>
    </clipPath>
    <clipPath id="clip140">
      <path d="M 290 -290 L 290 -790 L 950 -790 L 950 -290 Z"/>
    </clipPath>
    <clipPath id="clip141">
      <path d="M 297 -297 L 297 -783 L 943 -783 L 943 -297 Z"/>
    </clipPath>
    <clipPath id="clip142">
      <path d="M 290 -290 L 290 -790 L 950 -790 L 950 -290 Z"/>
    </clipPath>
  </defs>
  <g style="stroke-linejoin:miter;font-size:20;font-family:Helvetica;fill:none;stroke-linecap:butt;stroke:rgb(0,0,0);font-stretch:normal;stroke-dasharray:none;font-weight:normal;font-style:normal;stroke-width:0.4;">
    <path d="M 300 -300 L 940 -300"/>
    <path d="M 300 -300 L 940 -300"/>
    <path d="M 300.0 -300 L 300.0 -294"/>
    <text style="stroke:none;fill:rgb(0,0,0);" x="279.99000000000001" y="-264.0">
       -8.4
    </text>
    <path d="M 700.40040040040049 -300 L 700.40040040040049 -294"/>
    <text style="stroke:none;fill:rgb(0,0,0);" x="680.94040040040045" y="-264.0">
        1.6
    </text>
    <text style="stroke:none;fill:rgb(0,0,0);" x="588.88999999999999" y="-254.0">
      CA-CB
    </text>
    <path d="M 300 -348.4261501210654 L 940 -348.4261501210654" style="stroke:rgb(179,179,179);stroke-dasharray:1,1;"/>
    <path d="M 300 -396.85230024213075 L 940 -396.85230024213075" style="stroke:rgb(179,179,179);stroke-dasharray:1,1;"/>
    <path d="M 300 -445.27845036319616 L 940 -445.27845036319616" style="stroke:rgb(179,179,179);stroke-dasharray:1,1;"/>
    <path d="M 300 -493.7046004842615 L 940 -493.7046004842615" style="stroke:rgb(179,179,179);stroke-dasharray:1,1;"/>
    <path d="M 300 -542.13075060532697 L 940 -542.13075060532697" style="stroke:rgb(179,179,179);stroke-dasharray:1,1;"/>
    <path d="M 300 -590.55690072639231 L 940 -590.55690072639231" style="stroke:rgb(179,179,179);stroke-dasharray:1,1;"/>
    <path d="M 300 -638.98305084745766 L 940 -638.98305084745766" style="stroke:rgb(179,179,179);stroke-dasharray:1,1;"/>
    <path d="M 300 -687.40920096852301 L 940 -687.40920096852301" style="stroke:rgb(179,179,179);stroke-dasharray:1,1;"/>
    <path d="M 300 -735.83535108958836 L 940 -735.83535108958836" style="stroke:rgb(179,179,179);stroke-dasharray:1,1;"/>
    <path d="M 300 -300 L 300 -780"/>
    <path d="M 300 -300.0 L 294 -300.0"/>
    <text style="stroke:none;fill:rgb(0,0,0);" x="243.97999999999999" y="-290.0">
       -6.2
    </text>
    <path d="M 300 -348.4261501210654 L 294 -348.4261501210654"/>
    <text style="stroke:none;fill:rgb(0,0,0);" x="243.97999999999999" y="-338.4261501210654">
       -5.2
    </text>
    <path d="M 300 -396.85230024213075 L 294 -396.85230024213075"/>
    <text style="stroke:none;fill:rgb(0,0,0);" x="243.97999999999999" y="-386.85230024213075">
       -4.2
    </text>
    <path d="M 300 -445.27845036319616 L 294 -445.27845036319616"/>
    <text style="stroke:none;fill:rgb(0,0,0);" x="243.97999999999999" y="-435.27845036319616">
       -3.2
    </text>
    <path d="M 300 -493.7046004842615 L 294 -493.7046004842615"/>
    <text style="stroke:none;fill:rgb(0,0,0);" x="243.97999999999999" y="-483.7046004842615">
       -2.2
    </text>
    <path d="M 300 -542.13075060532697 L 294 -542.13075060532697"/>
    <text style="stroke:none;fill:rgb(0,0,0);" x="243.97999999999999" y="-532.13075060532697">
       -1.2
    </text>
    <path d="M 300 -590.55690072639231 L 294 -590.55690072639231"/>
    <text style="stroke:none;fill:rgb(0,0,0);" x="243.97999999999999" y="-580.55690072639231">
       -0.2
    </text>
    <path d="M 300 -638.98305084745766 L 294 -638.98305084745766"/>
    <text style="stroke:none;fill:rgb(0,0,0);" x="245.07999999999998" y="-628.98305084745766">
        0.8
    </text>
    <path d="M 300 -687.40920096852301 L 294 -687.40920096852301"/>
    <text style="stroke:none;fill:rgb(0,0,0);" x="245.07999999999998" y="-677.40920096852301">
        1.8
    </text>
    <path d="M 300 -735.83535108958836 L 294 -735.83535108958836"/>
    <text style="stroke:none;fill:rgb(0,0,0);" x="245.07999999999998" y="-725.83535108958836">
        2.8
    </text>
    <text style="stroke:none;fill:rgb(0,0,0);" transform="rotate(-90,233.98,-526.11)" x="233.97999999999999" y="-526.11000000000001">
      CA
    </text>
    <g style="clip-path:url(#clip0);">
      <g style="clip-path:url(#clip1);">
        <path d="M 353.33333333333331 -379.22518159806293 L 718.09809809809803 -535.64164648910412" style="stroke:rgb(0,255,255);"/>
      </g>
      <g style="clip-path:url(#clip2);"/>
      <g style="clip-path:url(#clip3);">
        <path d="M 557.93793793793793 -426.19854721549632 L 886.66666666666674 -717.72397094430994" style="stroke:rgb(0,255,255);"/>
      </g>
      <g style="clip-path:url(#clip4);"/>
      <g style="clip-path:url(#clip5);">
        <path d="M 353.33333333333331 -702.71186440677957 L 886.66666666666674 -702.71186440677957" style="stroke:rgb(255,0,0);"/>
      </g>
      <g style="clip-path:url(#clip6);"/>
      <g style="clip-path:url(#clip7);"/>
      <g style="stroke:rgb(255,0,0);clip-path:url(#clip8);">
        <path d="M 665.24524524524531 -673.17191283292982 M 667.74524524524531 -673.17191283292982 L 667.745 -673.172 M 667.745 -673.172 A 2.5 2.5 0 1 0 662.745 -673.172 A 2.5 2.5 0 1 0 667.745 -673.172 Z"/>
        <text style="stroke:none;fill:rgb(0,0,0);" x="612.43524524524526" y="-678.17191283292982">
          HIS 56 1.49
        </text>
      </g>
      <g style="clip-path:url(#clip9);"/>
      <g style="stroke:rgb(0,0,255);clip-path:url(#clip10);">
        <path d="M 646.02602602602599 -511.42857142857144 M 648.52602602602599 -511.42857142857144 L 648.526 -511.429 M 648.526 -511.429 A 2.5 2.5 0 1 0 643.526 -511.429 A 2.5 2.5 0 1 0 648.526 -511.429 Z"/>
      </g>
      <g style="clip-path:url(#clip11);"/>
      <g style="stroke:rgb(0,0,255);clip-path:url(#clip12);">
        <path d="M 353.33333333333331 -416.51331719128325 M 355.83333333333331 -416.51331719128325 L 355.833 -416.513 M 355.833 -416.513 A 2.5 2.5 0 1 0 350.833 -416.513 A 2.5 2.5 0 1 0 355.833 -416.513 Z"/>
      </g>
      <g style="clip-path:url(#clip13);"/>
      <g style="stroke:rgb(0,0,255);clip-path:url(#clip14);">
        <path d="M 506.28628628628633 -495.93220338983053 M 508.78628628628633 -495.93220338983053 L 508.786 -495.932 M 508.786 -495.932 A 2.5 2.5 0 1 0 503.786 -495.932 A 2.5 2.5 0 1 0 508.786 -495.932 Z"/>
      </g>
      <g style="clip-path:url(#clip15);"/>
      <g style="stroke:rgb(0,0,255);clip-path:url(#clip16);">
        <path d="M 353.33333333333331 -420.38740920096848 M 355.83333333333331 -420.38740920096848 L 355.833 -420.387 M 355.833 -420.387 A 2.5 2.5 0 1 0 350.833 -420.387 A 2.5 2.5 0 1 0 355.833 -420.387 Z"/>
      </g>
      <g style="clip-path:url(#clip17);"/>
      <g style="stroke:rgb(0,0,255);clip-path:url(#clip18);">
        <path d="M 509.48948948948953 -366.15012106537529 M 511.98948948948953 -366.15012106537529 L 511.989 -366.15 M 511.989 -366.15 A 2.5 2.5 0 1 0 506.989 -366.15 A 2.5 2.5 0 1 0 511.989 -366.15 Z"/>
      </g>
      <g style="clip-path:url(#clip19);"/>
      <g style="stroke:rgb(0,0,255);clip-path:url(#clip20);">
        <path d="M 441.02102102102106 -386.00484261501208 M 443.52102102102106 -386.00484261501208 L 443.521 -386.005 M 443.521 -386.005 A 2.5 2.5 0 1 0 438.521 -386.005 A 2.5 2.5 0 1 0 443.521 -386.005 Z"/>
      </g>
      <g style="clip-path:url(#clip21);"/>
      <g style="stroke:rgb(0,0,255);clip-path:url(#clip22);">
        <path d="M 601.98198198198202 -505.6174334140436 M 604.48198198198202 -505.6174334140436 L 604.482 -505.617 M 604.482 -505.617 A 2.5 2.5 0 1 0 599.482 -505.617 A 2.5 2.5 0 1 0 604.482 -505.617 Z"/>
      </g>
      <g style="clip-path:url(#clip23);"/>
      <g style="stroke:rgb(0,0,255);clip-path:url(#clip24);">
        <path d="M 865.04504504504507 -728.86198547215508 M 867.54504504504507 -728.86198547215508 L 867.545 -728.862 M 867.545 -728.862 A 2.5 2.5 0 1 0 862.545 -728.862 A 2.5 2.5 0 1 0 867.545 -728.862 Z"/>
      </g>
      <g style="clip-path:url(#clip25);"/>
      <g style="stroke:rgb(0,0,255);clip-path:url(#clip26);">
        <path d="M 823.40340340340344 -664.9394673123486 M 825.90340340340344 -664.9394673123486 L 825.903 -664.939 M 825.903 -664.939 A 2.5 2.5 0 1 0 820.903 -664.939 A 2.5 2.5 0 1 0 825.903 -664.939 Z"/>
      </g>
      <g style="clip-path:url(#clip27);"/>
      <g style="stroke:rgb(0,0,255);clip-path:url(#clip28);">
        <path d="M 851.83183183183178 -673.65617433414047 M 854.33183183183178 -673.65617433414047 L 854.332 -673.656 M 854.332 -673.656 A 2.5 2.5 0 1 0 849.332 -673.656 A 2.5 2.5 0 1 0 854.332 -673.656 Z"/>
      </g>
      <g style="clip-path:url(#clip29);"/>
      <g style="stroke:rgb(0,0,255);clip-path:url(#clip30);">
        <path d="M 794.974974974975 -614.09200968522998 M 797.474974974975 -614.09200968522998 L 797.475 -614.092 M 797.475 -614.092 A 2.5 2.5 0 1 0 792.475 -614.092 A 2.5 2.5 0 1 0 797.475 -614.092 Z"/>
      </g>
      <g style="clip-path:url(#clip31);"/>
      <g style="stroke:rgb(0,0,255);clip-path:url(#clip32);">
        <path d="M 830.21021021021022 -680.92009685230028 M 832.71021021021022 -680.92009685230028 L 832.71 -680.92 M 832.71 -680.92 A 2.5 2.5 0 1 0 827.71 -680.92 A 2.5 2.5 0 1 0 832.71 -680.92 Z"/>
      </g>
      <g style="clip-path:url(#clip33);"/>
      <g style="stroke:rgb(0,0,255);clip-path:url(#clip34);">
        <path d="M 752.932932932933 -615.0605326876514 M 755.432932932933 -615.0605326876514 L 755.433 -615.061 M 755.433 -615.061 A 2.5 2.5 0 1 0 750.433 -615.061 A 2.5 2.5 0 1 0 755.433 -615.061 Z"/>
      </g>
      <g style="clip-path:url(#clip35);"/>
      <g style="stroke:rgb(0,0,255);clip-path:url(#clip36);">
        <path d="M 867.84784784784779 -705.6174334140436 M 870.34784784784779 -705.6174334140436 L 870.348 -705.617 M 870.348 -705.617 A 2.5 2.5 0 1 0 865.348 -705.617 A 2.5 2.5 0 1 0 870.348 -705.617 Z"/>
      </g>
      <g style="clip-path:url(#clip37);"/>
      <g style="stroke:rgb(0,0,255);clip-path:url(#clip38);">
        <path d="M 812.5925925925925 -656.22276029055683 M 815.0925925925925 -656.22276029055683 L 815.093 -656.223 M 815.093 -656.223 A 2.5 2.5 0 1 0 810.093 -656.223 A 2.5 2.5 0 1 0 815.093 -656.223 Z"/>
      </g>
      <g style="clip-path:url(#clip39);"/>
      <g style="stroke:rgb(0,0,255);clip-path:url(#clip40);">
        <path d="M 798.1781781781782 -654.76997578692499 M 800.6781781781782 -654.76997578692499 L 800.678 -654.77 M 800.678 -654.77 A 2.5 2.5 0 1 0 795.678 -654.77 A 2.5 2.5 0 1 0 800.678 -654.77 Z"/>
      </g>
      <g style="clip-path:url(#clip41);"/>
      <g style="stroke:rgb(0,0,255);clip-path:url(#clip42);">
        <path d="M 777.75775775775787 -596.1743341404358 M 780.25775775775787 -596.1743341404358 L 780.258 -596.174 M 780.258 -596.174 A 2.5 2.5 0 1 0 775.258 -596.174 A 2.5 2.5 0 1 0 780.258 -596.174 Z"/>
      </g>
      <g style="clip-path:url(#clip43);"/>
      <g style="stroke:rgb(0,0,255);clip-path:url(#clip44);">
        <path d="M 804.18418418418423 -635.39951573849885 M 806.68418418418423 -635.39951573849885 L 806.684 -635.4 M 806.684 -635.4 A 2.5 2.5 0 1 0 801.684 -635.4 A 2.5 2.5 0 1 0 806.684 -635.4 Z"/>
      </g>
      <g style="clip-path:url(#clip45);"/>
      <g style="stroke:rgb(0,0,255);clip-path:url(#clip46);">
        <path d="M 719.69969969969975 -535.15738498789347 M 722.19969969969975 -535.15738498789347 L 722.2 -535.157 M 722.2 -535.157 A 2.5 2.5 0 1 0 717.2 -535.157 A 2.5 2.5 0 1 0 722.2 -535.157 Z"/>
      </g>
      <g style="clip-path:url(#clip47);"/>
      <g style="stroke:rgb(0,0,255);clip-path:url(#clip48);">
        <path d="M 589.16916916916921 -482.85714285714289 M 591.66916916916921 -482.85714285714289 L 591.669 -482.857 M 591.669 -482.857 A 2.5 2.5 0 1 0 586.669 -482.857 A 2.5 2.5 0 1 0 591.669 -482.857 Z"/>
      </g>
      <g style="clip-path:url(#clip49);"/>
      <g style="stroke:rgb(0,0,255);clip-path:url(#clip50);">
        <path d="M 777.35735735735739 -616.99757869249402 M 779.85735735735739 -616.99757869249402 L 779.857 -616.998 M 779.857 -616.998 A 2.5 2.5 0 1 0 774.857 -616.998 A 2.5 2.5 0 1 0 779.857 -616.998 Z"/>
      </g>
      <g style="clip-path:url(#clip51);"/>
      <g style="stroke:rgb(0,0,255);clip-path:url(#clip52);">
        <path d="M 736.11611611611602 -539.51573849878935 M 738.61611611611602 -539.51573849878935 L 738.616 -539.516 M 738.616 -539.516 A 2.5 2.5 0 1 0 733.616 -539.516 A 2.5 2.5 0 1 0 738.616 -539.516 Z"/>
      </g>
      <g style="clip-path:url(#clip53);"/>
      <g style="stroke:rgb(0,0,255);clip-path:url(#clip54);">
        <path d="M 589.16916916916921 -550.16949152542372 M 591.66916916916921 -550.16949152542372 L 591.669 -550.169 M 591.669 -550.169 A 2.5 2.5 0 1 0 586.669 -550.169 A 2.5 2.5 0 1 0 591.669 -550.169 Z"/>
      </g>
      <g style="clip-path:url(#clip55);"/>
      <g style="stroke:rgb(0,0,255);clip-path:url(#clip56);">
        <path d="M 533.51351351351354 -412.15496368038737 M 536.01351351351354 -412.15496368038737 L 536.014 -412.155 M 536.014 -412.155 A 2.5 2.5 0 1 0 531.014 -412.155 A 2.5 2.5 0 1 0 536.014 -412.155 Z"/>
      </g>
      <g style="clip-path:url(#clip57);"/>
      <g style="stroke:rgb(0,0,255);clip-path:url(#clip58);">
        <path d="M 734.91491491491502 -560.33898305084745 M 737.41491491491502 -560.33898305084745 L 737.415 -560.339 M 737.415 -560.339 A 2.5 2.5 0 1 0 732.415 -560.339 A 2.5 2.5 0 1 0 737.415 -560.339 Z"/>
      </g>
      <g style="clip-path:url(#clip59);"/>
      <g style="stroke:rgb(0,0,255);clip-path:url(#clip60);">
        <path d="M 396.5765765765766 -388.910411622276 M 399.0765765765766 -388.910411622276 L 399.077 -388.91 M 399.077 -388.91 A 2.5 2.5 0 1 0 394.077 -388.91 A 2.5 2.5 0 1 0 399.077 -388.91 Z"/>
      </g>
      <g style="clip-path:url(#clip61);"/>
      <g style="stroke:rgb(0,0,255);clip-path:url(#clip62);">
        <path d="M 444.22422422422426 -407.31234866828083 M 446.72422422422426 -407.31234866828083 L 446.724 -407.312 M 446.724 -407.312 A 2.5 2.5 0 1 0 441.724 -407.312 A 2.5 2.5 0 1 0 446.724 -407.312 Z"/>
      </g>
      <g style="clip-path:url(#clip63);"/>
      <g style="stroke:rgb(0,0,255);clip-path:url(#clip64);">
        <path d="M 542.72272272272278 -534.67312348668281 M 545.22272272272278 -534.67312348668281 L 545.223 -534.673 M 545.223 -534.673 A 2.5 2.5 0 1 0 540.223 -534.673 A 2.5 2.5 0 1 0 545.223 -534.673 Z"/>
      </g>
      <g style="clip-path:url(#clip65);"/>
      <g style="stroke:rgb(0,0,255);clip-path:url(#clip66);">
        <path d="M 648.02802802802807 -502.71186440677968 M 650.52802802802807 -502.71186440677968 L 650.528 -502.712 M 650.528 -502.712 A 2.5 2.5 0 1 0 645.528 -502.712 A 2.5 2.5 0 1 0 650.528 -502.712 Z"/>
      </g>
      <g style="clip-path:url(#clip67);"/>
      <g style="stroke:rgb(0,0,255);clip-path:url(#clip68);">
        <path d="M 768.14814814814815 -586.48910411622273 M 770.64814814814815 -586.48910411622273 L 770.648 -586.489 M 770.648 -586.489 A 2.5 2.5 0 1 0 765.648 -586.489 A 2.5 2.5 0 1 0 770.648 -586.489 Z"/>
      </g>
      <g style="clip-path:url(#clip69);"/>
      <g style="stroke:rgb(0,0,255);clip-path:url(#clip70);">
        <path d="M 426.60660660660659 -341.93704600484261 M 429.10660660660659 -341.93704600484261 L 429.107 -341.937 M 429.107 -341.937 A 2.5 2.5 0 1 0 424.107 -341.937 A 2.5 2.5 0 1 0 429.107 -341.937 Z"/>
      </g>
      <g style="clip-path:url(#clip71);"/>
      <g style="stroke:rgb(0,0,255);clip-path:url(#clip72);">
        <path d="M 466.2462462462463 -460.09685230024212 M 468.7462462462463 -460.09685230024212 L 468.746 -460.097 M 468.746 -460.097 A 2.5 2.5 0 1 0 463.746 -460.097 A 2.5 2.5 0 1 0 468.746 -460.097 Z"/>
      </g>
      <g style="clip-path:url(#clip73);"/>
      <g style="stroke:rgb(0,0,255);clip-path:url(#clip74);">
        <path d="M 565.14514514514508 -424.26150121065371 M 567.64514514514508 -424.26150121065371 L 567.645 -424.262 M 567.645 -424.262 A 2.5 2.5 0 1 0 562.645 -424.262 A 2.5 2.5 0 1 0 567.645 -424.262 Z"/>
      </g>
      <g style="clip-path:url(#clip75);"/>
      <g style="stroke:rgb(0,0,255);clip-path:url(#clip76);">
        <path d="M 729.30930930930936 -623.77723970944317 M 731.80930930930936 -623.77723970944317 L 731.809 -623.777 M 731.809 -623.777 A 2.5 2.5 0 1 0 726.809 -623.777 A 2.5 2.5 0 1 0 731.809 -623.777 Z"/>
      </g>
      <g style="clip-path:url(#clip77);"/>
      <g style="stroke:rgb(0,0,255);clip-path:url(#clip78);">
        <path d="M 657.2372372372372 -514.81840193704602 M 659.7372372372372 -514.81840193704602 L 659.737 -514.818 M 659.737 -514.818 A 2.5 2.5 0 1 0 654.737 -514.818 A 2.5 2.5 0 1 0 659.737 -514.818 Z"/>
      </g>
      <g style="clip-path:url(#clip79);"/>
      <g style="stroke:rgb(0,0,255);clip-path:url(#clip80);">
        <path d="M 608.78878878878879 -498.3535108958838 M 611.28878878878879 -498.3535108958838 L 611.289 -498.354 M 611.289 -498.354 A 2.5 2.5 0 1 0 606.289 -498.354 A 2.5 2.5 0 1 0 611.289 -498.354 Z"/>
      </g>
      <g style="clip-path:url(#clip81);"/>
      <g style="stroke:rgb(0,0,255);clip-path:url(#clip82);">
        <path d="M 722.10210210210209 -570.50847457627117 M 724.60210210210209 -570.50847457627117 L 724.602 -570.508 M 724.602 -570.508 A 2.5 2.5 0 1 0 719.602 -570.508 A 2.5 2.5 0 1 0 724.602 -570.508 Z"/>
      </g>
      <g style="clip-path:url(#clip83);"/>
      <g style="stroke:rgb(0,0,255);clip-path:url(#clip84);">
        <path d="M 682.86286286286281 -532.7360774818402 M 685.36286286286281 -532.7360774818402 L 685.363 -532.736 M 685.363 -532.736 A 2.5 2.5 0 1 0 680.363 -532.736 A 2.5 2.5 0 1 0 685.363 -532.736 Z"/>
      </g>
      <g style="clip-path:url(#clip85);"/>
      <g style="stroke:rgb(0,0,255);clip-path:url(#clip86);">
        <path d="M 599.97997997998004 -478.9830508474576 M 602.47997997998004 -478.9830508474576 L 602.48 -478.983 M 602.48 -478.983 A 2.5 2.5 0 1 0 597.48 -478.983 A 2.5 2.5 0 1 0 602.48 -478.983 Z"/>
      </g>
      <g style="clip-path:url(#clip87);"/>
      <g style="stroke:rgb(0,0,255);clip-path:url(#clip88);">
        <path d="M 540.32032032032032 -435.39951573849874 M 542.82032032032032 -435.39951573849874 L 542.82 -435.4 M 542.82 -435.4 A 2.5 2.5 0 1 0 537.82 -435.4 A 2.5 2.5 0 1 0 542.82 -435.4 Z"/>
      </g>
      <g style="clip-path:url(#clip89);"/>
      <g style="stroke:rgb(0,0,255);clip-path:url(#clip90);">
        <path d="M 410.99099099099101 -405.37530266343822 M 413.49099099099101 -405.37530266343822 L 413.491 -405.375 M 413.491 -405.375 A 2.5 2.5 0 1 0 408.491 -405.375 A 2.5 2.5 0 1 0 413.491 -405.375 Z"/>
      </g>
      <g style="clip-path:url(#clip91);"/>
      <g style="stroke:rgb(0,0,255);clip-path:url(#clip92);">
        <path d="M 439.81981981981983 -479.95157384987891 M 442.31981981981983 -479.95157384987891 L 442.32 -479.952 M 442.32 -479.952 A 2.5 2.5 0 1 0 437.32 -479.952 A 2.5 2.5 0 1 0 442.32 -479.952 Z"/>
      </g>
      <g style="clip-path:url(#clip93);"/>
      <g style="stroke:rgb(0,0,255);clip-path:url(#clip94);">
        <path d="M 548.32832832832833 -400.53268765133168 M 550.82832832832833 -400.53268765133168 L 550.828 -400.533 M 550.828 -400.533 A 2.5 2.5 0 1 0 545.828 -400.533 A 2.5 2.5 0 1 0 550.828 -400.533 Z"/>
      </g>
      <g style="clip-path:url(#clip95);"/>
      <g style="stroke:rgb(0,0,255);clip-path:url(#clip96);">
        <path d="M 469.84984984984987 -340.0 M 472.34984984984987 -340.0 L 472.35 -340 M 472.35 -340 A 2.5 2.5 0 1 0 467.35 -340 A 2.5 2.5 0 1 0 472.35 -340 Z"/>
      </g>
      <g style="clip-path:url(#clip97);"/>
      <g style="stroke:rgb(0,0,255);clip-path:url(#clip98);">
        <path d="M 447.02702702702709 -470.7506053268765 M 449.52702702702709 -470.7506053268765 L 449.527 -470.751 M 449.527 -470.751 A 2.5 2.5 0 1 0 444.527 -470.751 A 2.5 2.5 0 1 0 449.527 -470.751 Z"/>
      </g>
      <g style="clip-path:url(#clip99);"/>
      <g style="stroke:rgb(0,0,255);clip-path:url(#clip100);">
        <path d="M 872.25225225225222 -716.75544794188863 M 874.75225225225222 -716.75544794188863 L 874.752 -716.755 M 874.752 -716.755 A 2.5 2.5 0 1 0 869.752 -716.755 A 2.5 2.5 0 1 0 874.752 -716.755 Z"/>
      </g>
      <g style="clip-path:url(#clip101);"/>
      <g style="stroke:rgb(0,0,255);clip-path:url(#clip102);">
        <path d="M 771.35135135135135 -659.12832929782087 M 773.85135135135135 -659.12832929782087 L 773.851 -659.128 M 773.851 -659.128 A 2.5 2.5 0 1 0 768.851 -659.128 A 2.5 2.5 0 1 0 773.851 -659.128 Z"/>
      </g>
      <g style="clip-path:url(#clip103);"/>
      <g style="stroke:rgb(0,0,255);clip-path:url(#clip104);">
        <path d="M 813.39339339339335 -661.54963680387414 M 815.89339339339335 -661.54963680387414 L 815.893 -661.55 M 815.893 -661.55 A 2.5 2.5 0 1 0 810.893 -661.55 A 2.5 2.5 0 1 0 815.893 -661.55 Z"/>
      </g>
      <g style="clip-path:url(#clip105);"/>
      <g style="stroke:rgb(0,0,255);clip-path:url(#clip106);">
        <path d="M 886.66666666666674 -740.0 M 889.16666666666674 -740.0 L 889.167 -740 M 889.167 -740 A 2.5 2.5 0 1 0 884.167 -740 A 2.5 2.5 0 1 0 889.167 -740 Z"/>
      </g>
      <g style="clip-path:url(#clip107);"/>
      <g style="stroke:rgb(0,0,255);clip-path:url(#clip108);">
        <path d="M 831.81181181181182 -653.31719128329303 M 834.31181181181182 -653.31719128329303 L 834.312 -653.317 M 834.312 -653.317 A 2.5 2.5 0 1 0 829.312 -653.317 A 2.5 2.5 0 1 0 834.312 -653.317 Z"/>
      </g>
      <g style="clip-path:url(#clip109);"/>
      <g style="stroke:rgb(0,0,255);clip-path:url(#clip110);">
        <path d="M 870.65065065065062 -701.25907990314772 M 873.15065065065062 -701.25907990314772 L 873.151 -701.259 M 873.151 -701.259 A 2.5 2.5 0 1 0 868.151 -701.259 A 2.5 2.5 0 1 0 873.151 -701.259 Z"/>
      </g>
      <g style="clip-path:url(#clip111);"/>
      <g style="stroke:rgb(0,0,255);clip-path:url(#clip112);">
        <path d="M 751.73173173173177 -589.39467312348665 M 754.23173173173177 -589.39467312348665 L 754.232 -589.395 M 754.232 -589.395 A 2.5 2.5 0 1 0 749.232 -589.395 A 2.5 2.5 0 1 0 754.232 -589.395 Z"/>
      </g>
      <g style="clip-path:url(#clip113);"/>
      <g style="stroke:rgb(0,0,255);clip-path:url(#clip114);">
        <path d="M 646.42642642642647 -531.76755447941889 M 648.92642642642647 -531.76755447941889 L 648.926 -531.768 M 648.926 -531.768 A 2.5 2.5 0 1 0 643.926 -531.768 A 2.5 2.5 0 1 0 648.926 -531.768 Z"/>
      </g>
      <g style="clip-path:url(#clip115);"/>
      <g style="stroke:rgb(0,0,255);clip-path:url(#clip116);">
        <path d="M 675.65565565565566 -603.43825665859561 M 678.15565565565566 -603.43825665859561 L 678.156 -603.438 M 678.156 -603.438 A 2.5 2.5 0 1 0 673.156 -603.438 A 2.5 2.5 0 1 0 678.156 -603.438 Z"/>
      </g>
      <g style="clip-path:url(#clip117);"/>
      <g style="stroke:rgb(0,0,255);clip-path:url(#clip118);">
        <path d="M 698.87887887887882 -497.86924939467315 M 701.37887887887882 -497.86924939467315 L 701.379 -497.869 M 701.379 -497.869 A 2.5 2.5 0 1 0 696.379 -497.869 A 2.5 2.5 0 1 0 701.379 -497.869 Z"/>
      </g>
      <g style="clip-path:url(#clip119);"/>
      <g style="stroke:rgb(0,0,255);clip-path:url(#clip120);">
        <path d="M 643.62362362362364 -457.19128329297814 M 646.12362362362364 -457.19128329297814 L 646.124 -457.191 M 646.124 -457.191 A 2.5 2.5 0 1 0 641.124 -457.191 A 2.5 2.5 0 1 0 646.124 -457.191 Z"/>
      </g>
      <g style="clip-path:url(#clip121);"/>
      <g style="stroke:rgb(0,0,255);clip-path:url(#clip122);">
        <path d="M 745.32532532532537 -584.06779661016958 M 747.82532532532537 -584.06779661016958 L 747.825 -584.068 M 747.825 -584.068 A 2.5 2.5 0 1 0 742.825 -584.068 A 2.5 2.5 0 1 0 747.825 -584.068 Z"/>
      </g>
      <g style="clip-path:url(#clip123);"/>
      <g style="stroke:rgb(0,0,255);clip-path:url(#clip124);">
        <path d="M 670.85085085085086 -484.79418886198545 M 673.35085085085086 -484.79418886198545 L 673.351 -484.794 M 673.351 -484.794 A 2.5 2.5 0 1 0 668.351 -484.794 A 2.5 2.5 0 1 0 673.351 -484.794 Z"/>
      </g>
      <g style="clip-path:url(#clip125);"/>
      <g style="stroke:rgb(0,0,255);clip-path:url(#clip126);">
        <path d="M 589.96996996996995 -449.9273607748184 M 592.46996996996995 -449.9273607748184 L 592.47 -449.927 M 592.47 -449.927 A 2.5 2.5 0 1 0 587.47 -449.927 A 2.5 2.5 0 1 0 592.47 -449.927 Z"/>
      </g>
      <g style="clip-path:url(#clip127);"/>
      <g style="stroke:rgb(0,0,255);clip-path:url(#clip128);">
        <path d="M 556.33633633633633 -470.26634382566584 M 558.83633633633633 -470.26634382566584 L 558.836 -470.266 M 558.836 -470.266 A 2.5 2.5 0 1 0 553.836 -470.266 A 2.5 2.5 0 1 0 558.836 -470.266 Z"/>
      </g>
      <g style="clip-path:url(#clip129);"/>
      <g style="stroke:rgb(0,0,255);clip-path:url(#clip130);">
        <path d="M 583.96396396396403 -485.2784503631961 M 586.46396396396403 -485.2784503631961 L 586.464 -485.278 M 586.464 -485.278 A 2.5 2.5 0 1 0 581.464 -485.278 A 2.5 2.5 0 1 0 586.464 -485.278 Z"/>
      </g>
      <g style="clip-path:url(#clip131);"/>
      <g style="stroke:rgb(0,0,255);clip-path:url(#clip132);">
        <path d="M 512.29229229229225 -428.61985472154959 M 514.79229229229225 -428.61985472154959 L 514.792 -428.62 M 514.792 -428.62 A 2.5 2.5 0 1 0 509.792 -428.62 A 2.5 2.5 0 1 0 514.792 -428.62 Z"/>
      </g>
      <g style="clip-path:url(#clip133);"/>
      <g style="stroke:rgb(0,0,255);clip-path:url(#clip134);">
        <path d="M 510.6906906906907 -419.41888619854717 M 513.19069069069064 -419.41888619854717 L 513.191 -419.419 M 513.191 -419.419 A 2.5 2.5 0 1 0 508.191 -419.419 A 2.5 2.5 0 1 0 513.191 -419.419 Z"/>
      </g>
      <g style="clip-path:url(#clip135);"/>
      <g style="stroke:rgb(0,0,255);clip-path:url(#clip136);">
        <path d="M 431.01101101101096 -423.2929782082324 M 433.51101101101096 -423.2929782082324 L 433.511 -423.293 M 433.511 -423.293 A 2.5 2.5 0 1 0 428.511 -423.293 A 2.5 2.5 0 1 0 433.511 -423.293 Z"/>
      </g>
      <g style="clip-path:url(#clip137);"/>
      <g style="stroke:rgb(0,0,255);clip-path:url(#clip138);">
        <path d="M 425.80580580580579 -429.58837772397089 M 428.30580580580579 -429.58837772397089 L 428.306 -429.588 M 428.306 -429.588 A 2.5 2.5 0 1 0 423.306 -429.588 A 2.5 2.5 0 1 0 428.306 -429.588 Z"/>
      </g>
      <g style="clip-path:url(#clip139);"/>
      <g style="stroke:rgb(0,0,255);clip-path:url(#clip140);">
        <path d="M 592.37237237237241 -483.82566585956414 M 594.87237237237241 -483.82566585956414 L 594.872 -483.826 M 594.872 -483.826 A 2.5 2.5 0 1 0 589.872 -483.826 A 2.5 2.5 0 1 0 594.872 -483.826 Z"/>
      </g>
      <g style="clip-path:url(#clip141);"/>
      <g style="stroke:rgb(0,0,255);clip-path:url(#clip142);">
        <path d="M 449.42942942942943 -390.84745762711862 M 451.92942942942943 -390.84745762711862 L 451.929 -390.847 M 451.929 -390.847 A 2.5 2.5 0 1 0 446.929 -390.847 A 2.5 2.5 0 1 0 451.929 -390.847 Z"/>
      </g>
    </g>
  </g>
</svg>
